<?xml version="1.0" encoding="UTF-8" standalone="no"?>
<!DOCTYPE svg PUBLIC "-//W3C//DTD SVG 1.1//EN"
 "http://www.w3.org/Graphics/SVG/1.1/DTD/svg11.dtd">
<!-- Generated by graphviz version 2.43.0 (0)
 -->
<!-- Title: %3 Pages: 1 -->
<svg width="1825pt" height="983pt"
 viewBox="0.00 0.00 1825.41 983.00" xmlns="http://www.w3.org/2000/svg" xmlns:xlink="http://www.w3.org/1999/xlink">
<g id="graph0" class="graph" transform="scale(1 1) rotate(0) translate(4 979)">
<title>%3</title>
<polygon fill="white" stroke="transparent" points="-4,4 -4,-979 1821.41,-979 1821.41,4 -4,4"/>
<!-- ds -->
<g id="node1" class="node">
<title>ds</title>
<polygon fill="yellow" stroke="black" points="273,-975 237,-975 237,-939 273,-939 273,-975"/>
<text text-anchor="middle" x="255" y="-953.3" font-family="Times,serif" font-size="14.00">ds</text>
</g>
<!-- qg -->
<g id="node2" class="node">
<title>qg</title>
<ellipse fill="none" stroke="black" cx="226" cy="-666" rx="27" ry="18"/>
<text text-anchor="middle" x="226" y="-662.3" font-family="Times,serif" font-size="14.00">qg</text>
</g>
<!-- ds&#45;&gt;qg -->
<g id="edge1" class="edge">
<title>ds&#45;&gt;qg</title>
<path fill="none" stroke="black" d="M249.66,-938.84C239.31,-904.53 216.82,-824.86 209,-756 207.2,-740.1 206.53,-735.81 209,-720 210.38,-711.18 212.98,-701.82 215.74,-693.46"/>
<polygon fill="black" stroke="black" points="219.1,-694.45 219.11,-683.86 212.49,-692.13 219.1,-694.45"/>
</g>
<!-- db -->
<g id="node3" class="node">
<title>db</title>
<ellipse fill="none" stroke="black" cx="245" cy="-738" rx="27" ry="18"/>
<text text-anchor="middle" x="245" y="-734.3" font-family="Times,serif" font-size="14.00">db</text>
</g>
<!-- ds&#45;&gt;db -->
<g id="edge2" class="edge">
<title>ds&#45;&gt;db</title>
<path fill="none" stroke="black" d="M253.66,-938.62C251.84,-914.49 248.65,-869.45 247,-831 246.07,-809.35 245.57,-784.82 245.3,-766.54"/>
<polygon fill="black" stroke="black" points="248.79,-766.25 245.16,-756.3 241.79,-766.35 248.79,-766.25"/>
</g>
<!-- bm -->
<g id="node4" class="node">
<title>bm</title>
<polygon fill="yellow" stroke="black" points="947.5,-831 908.5,-831 908.5,-792 947.5,-792 947.5,-831"/>
<text text-anchor="middle" x="928" y="-807.8" font-family="Times,serif" font-size="14.00">bm</text>
</g>
<!-- ds&#45;&gt;bm -->
<g id="edge3" class="edge">
<title>ds&#45;&gt;bm</title>
<path fill="none" stroke="black" d="M273.25,-955.5C356.66,-953.04 701.76,-940.7 802,-903 840.28,-888.6 877.47,-859.45 901.41,-838.11"/>
<polygon fill="black" stroke="black" points="903.95,-840.52 909,-831.2 899.24,-835.34 903.95,-840.52"/>
</g>
<!-- ft -->
<g id="node5" class="node">
<title>ft</title>
<ellipse fill="none" stroke="black" cx="198" cy="-450" rx="27" ry="18"/>
<text text-anchor="middle" x="198" y="-446.3" font-family="Times,serif" font-size="14.00">ft</text>
</g>
<!-- ds&#45;&gt;ft -->
<g id="edge4" class="edge">
<title>ds&#45;&gt;ft</title>
<path fill="none" stroke="black" d="M236.86,-948.03C198.77,-929.92 114,-881.83 114,-812.5 114,-812.5 114,-812.5 114,-593 114,-544.72 150.42,-498.45 175.3,-472.48"/>
<polygon fill="black" stroke="black" points="178.06,-474.67 182.59,-465.09 173.08,-469.75 178.06,-474.67"/>
</g>
<!-- jk -->
<g id="node6" class="node">
<title>jk</title>
<ellipse fill="none" stroke="black" cx="418" cy="-885" rx="27" ry="18"/>
<text text-anchor="middle" x="418" y="-881.3" font-family="Times,serif" font-size="14.00">jk</text>
</g>
<!-- ds&#45;&gt;jk -->
<g id="edge5" class="edge">
<title>ds&#45;&gt;jk</title>
<path fill="none" stroke="black" d="M273.14,-946.12C300.3,-933.43 351.43,-911.42 385.2,-897.85"/>
<polygon fill="black" stroke="black" points="386.65,-901.04 394.65,-894.09 384.07,-894.53 386.65,-901.04"/>
</g>
<!-- qs -->
<g id="node7" class="node">
<title>qs</title>
<ellipse fill="none" stroke="black" cx="283" cy="-811.5" rx="27" ry="18"/>
<text text-anchor="middle" x="283" y="-807.8" font-family="Times,serif" font-size="14.00">qs</text>
</g>
<!-- ds&#45;&gt;qs -->
<g id="edge6" class="edge">
<title>ds&#45;&gt;qs</title>
<path fill="none" stroke="black" d="M258.32,-938.98C263.12,-914.38 272.04,-868.66 277.74,-839.45"/>
<polygon fill="black" stroke="black" points="281.2,-839.99 279.68,-829.5 274.33,-838.65 281.2,-839.99"/>
</g>
<!-- dz -->
<g id="node8" class="node">
<title>dz</title>
<ellipse fill="none" stroke="black" cx="282" cy="-378" rx="27" ry="18"/>
<text text-anchor="middle" x="282" y="-374.3" font-family="Times,serif" font-size="14.00">dz</text>
</g>
<!-- ds&#45;&gt;dz -->
<g id="edge7" class="edge">
<title>ds&#45;&gt;dz</title>
<path fill="none" stroke="black" d="M273.17,-943.71C286.35,-934 303.75,-919.38 315,-903 359.02,-838.89 376,-816.77 376,-739 376,-739 376,-739 376,-521 376,-470.68 334.45,-424.5 306.6,-399.2"/>
<polygon fill="black" stroke="black" points="308.62,-396.32 298.81,-392.34 304,-401.57 308.62,-396.32"/>
</g>
<!-- ls -->
<g id="node34" class="node">
<title>ls</title>
<ellipse fill="none" stroke="black" cx="226" cy="-594" rx="27" ry="18"/>
<text text-anchor="middle" x="226" y="-590.3" font-family="Times,serif" font-size="14.00">ls</text>
</g>
<!-- qg&#45;&gt;ls -->
<g id="edge32" class="edge">
<title>qg&#45;&gt;ls</title>
<path fill="none" stroke="black" d="M226,-647.7C226,-639.98 226,-630.71 226,-622.11"/>
<polygon fill="black" stroke="black" points="229.5,-622.1 226,-612.1 222.5,-622.1 229.5,-622.1"/>
</g>
<!-- db&#45;&gt;qg -->
<g id="edge77" class="edge">
<title>db&#45;&gt;qg</title>
<path fill="none" stroke="black" d="M240.4,-720.05C238.25,-712.14 235.65,-702.54 233.24,-693.69"/>
<polygon fill="black" stroke="black" points="236.55,-692.52 230.56,-683.79 229.8,-694.36 236.55,-692.52"/>
</g>
<!-- vr -->
<g id="node50" class="node">
<title>vr</title>
<polygon fill="yellow" stroke="black" points="1012,-324 976,-324 976,-288 1012,-288 1012,-324"/>
<text text-anchor="middle" x="994" y="-302.3" font-family="Times,serif" font-size="14.00">vr</text>
</g>
<!-- bm&#45;&gt;vr -->
<g id="edge69" class="edge">
<title>bm&#45;&gt;vr</title>
<path fill="none" stroke="black" d="M938.43,-791.65C952.28,-764.81 975,-713.66 975,-667 975,-667 975,-667 975,-449 975,-408.86 982.55,-362.9 988.13,-334.4"/>
<polygon fill="black" stroke="black" points="991.61,-334.88 990.16,-324.39 984.74,-333.5 991.61,-334.88"/>
</g>
<!-- ft&#45;&gt;dz -->
<g id="edge23" class="edge">
<title>ft&#45;&gt;dz</title>
<path fill="none" stroke="black" d="M214.2,-435.5C226.63,-425.14 243.99,-410.67 258.03,-398.97"/>
<polygon fill="black" stroke="black" points="260.41,-401.55 265.85,-392.46 255.93,-396.17 260.41,-401.55"/>
</g>
<!-- jk&#45;&gt;ds -->
<g id="edge13" class="edge">
<title>jk&#45;&gt;ds</title>
<path fill="none" stroke="black" d="M397.71,-896.89C368.57,-910.4 315.31,-933.24 282.63,-946.22"/>
<polygon fill="black" stroke="black" points="281.23,-943.01 273.19,-949.91 283.78,-949.53 281.23,-943.01"/>
</g>
<!-- jk&#45;&gt;qs -->
<g id="edge14" class="edge">
<title>jk&#45;&gt;qs</title>
<path fill="none" stroke="black" d="M397.5,-873.14C374.9,-861.17 338.35,-841.81 312.63,-828.19"/>
<polygon fill="black" stroke="black" points="314.17,-825.05 303.7,-823.46 310.9,-831.23 314.17,-825.05"/>
</g>
<!-- qs&#45;&gt;db -->
<g id="edge72" class="edge">
<title>qs&#45;&gt;db</title>
<path fill="none" stroke="black" d="M274.38,-794.28C269.66,-785.41 263.72,-774.23 258.42,-764.25"/>
<polygon fill="black" stroke="black" points="261.37,-762.35 253.59,-755.16 255.19,-765.63 261.37,-762.35"/>
</g>
<!-- fg -->
<g id="node37" class="node">
<title>fg</title>
<ellipse fill="none" stroke="black" cx="282" cy="-306" rx="27" ry="18"/>
<text text-anchor="middle" x="282" y="-302.3" font-family="Times,serif" font-size="14.00">fg</text>
</g>
<!-- dz&#45;&gt;fg -->
<g id="edge35" class="edge">
<title>dz&#45;&gt;fg</title>
<path fill="none" stroke="black" d="M282,-359.7C282,-351.98 282,-342.71 282,-334.11"/>
<polygon fill="black" stroke="black" points="285.5,-334.1 282,-324.1 278.5,-334.1 285.5,-334.1"/>
</g>
<!-- cj -->
<g id="node9" class="node">
<title>cj</title>
<ellipse fill="none" stroke="black" cx="1312" cy="-378" rx="27" ry="18"/>
<text text-anchor="middle" x="1312" y="-374.3" font-family="Times,serif" font-size="14.00">cj</text>
</g>
<!-- pg -->
<g id="node10" class="node">
<title>pg</title>
<ellipse fill="none" stroke="black" cx="1274" cy="-306" rx="27" ry="18"/>
<text text-anchor="middle" x="1274" y="-302.3" font-family="Times,serif" font-size="14.00">pg</text>
</g>
<!-- cj&#45;&gt;pg -->
<g id="edge8" class="edge">
<title>cj&#45;&gt;pg</title>
<path fill="none" stroke="black" d="M1303.19,-360.76C1298.58,-352.28 1292.84,-341.71 1287.68,-332.2"/>
<polygon fill="black" stroke="black" points="1290.61,-330.27 1282.77,-323.15 1284.46,-333.61 1290.61,-330.27"/>
</g>
<!-- bd -->
<g id="node25" class="node">
<title>bd</title>
<polygon fill="yellow" stroke="black" points="1199,-468 1163,-468 1163,-432 1199,-432 1199,-468"/>
<text text-anchor="middle" x="1181" y="-446.3" font-family="Times,serif" font-size="14.00">bd</text>
</g>
<!-- pg&#45;&gt;bd -->
<g id="edge81" class="edge">
<title>pg&#45;&gt;bd</title>
<path fill="none" stroke="black" d="M1268.31,-323.65C1261.51,-342.23 1249.03,-372.75 1233,-396 1225.57,-406.78 1215.85,-417.35 1206.83,-426.17"/>
<polygon fill="black" stroke="black" points="1204.32,-423.72 1199.48,-433.15 1209.14,-428.8 1204.32,-423.72"/>
</g>
<!-- df -->
<g id="node46" class="node">
<title>df</title>
<ellipse fill="none" stroke="black" cx="1236" cy="-234" rx="27" ry="18"/>
<text text-anchor="middle" x="1236" y="-230.3" font-family="Times,serif" font-size="14.00">df</text>
</g>
<!-- pg&#45;&gt;df -->
<g id="edge80" class="edge">
<title>pg&#45;&gt;df</title>
<path fill="none" stroke="black" d="M1265.19,-288.76C1260.58,-280.28 1254.84,-269.71 1249.68,-260.2"/>
<polygon fill="black" stroke="black" points="1252.61,-258.27 1244.77,-251.15 1246.46,-261.61 1252.61,-258.27"/>
</g>
<!-- xz -->
<g id="node11" class="node">
<title>xz</title>
<ellipse fill="none" stroke="black" cx="93" cy="-234" rx="27" ry="18"/>
<text text-anchor="middle" x="93" y="-230.3" font-family="Times,serif" font-size="14.00">xz</text>
</g>
<!-- xz&#45;&gt;ds -->
<g id="edge10" class="edge">
<title>xz&#45;&gt;ds</title>
<path fill="none" stroke="black" d="M89.64,-251.97C84.69,-278.52 76,-331.56 76,-377 76,-812.5 76,-812.5 76,-812.5 76,-859.57 95.44,-872.17 131,-903 158.95,-927.24 199.64,-941.75 226.7,-949.3"/>
<polygon fill="black" stroke="black" points="226.12,-952.77 236.69,-951.95 227.92,-946.01 226.12,-952.77"/>
</g>
<!-- sx -->
<g id="node12" class="node">
<title>sx</title>
<ellipse fill="none" stroke="black" cx="55" cy="-162" rx="27" ry="18"/>
<text text-anchor="middle" x="55" y="-158.3" font-family="Times,serif" font-size="14.00">sx</text>
</g>
<!-- xz&#45;&gt;sx -->
<g id="edge9" class="edge">
<title>xz&#45;&gt;sx</title>
<path fill="none" stroke="black" d="M84.19,-216.76C79.58,-208.28 73.84,-197.71 68.68,-188.2"/>
<polygon fill="black" stroke="black" points="71.61,-186.27 63.77,-179.15 65.46,-189.61 71.61,-186.27"/>
</g>
<!-- sx&#45;&gt;ds -->
<g id="edge47" class="edge">
<title>sx&#45;&gt;ds</title>
<path fill="none" stroke="black" d="M51.64,-179.97C46.69,-206.52 38,-259.56 38,-305 38,-812.5 38,-812.5 38,-812.5 38,-858.89 53.93,-873.83 90,-903 130.39,-935.66 191.34,-948.38 226.76,-953.19"/>
<polygon fill="black" stroke="black" points="226.52,-956.69 236.88,-954.45 227.38,-949.74 226.52,-956.69"/>
</g>
<!-- lm -->
<g id="node42" class="node">
<title>lm</title>
<ellipse fill="none" stroke="black" cx="27" cy="-90" rx="27" ry="18"/>
<text text-anchor="middle" x="27" y="-86.3" font-family="Times,serif" font-size="14.00">lm</text>
</g>
<!-- sx&#45;&gt;lm -->
<g id="edge48" class="edge">
<title>sx&#45;&gt;lm</title>
<path fill="none" stroke="black" d="M48.36,-144.41C45.09,-136.22 41.06,-126.14 37.38,-116.95"/>
<polygon fill="black" stroke="black" points="40.55,-115.45 33.59,-107.47 34.05,-118.05 40.55,-115.45"/>
</g>
<!-- kd -->
<g id="node13" class="node">
<title>kd</title>
<ellipse fill="none" stroke="black" cx="1569" cy="-306" rx="27" ry="18"/>
<text text-anchor="middle" x="1569" y="-302.3" font-family="Times,serif" font-size="14.00">kd</text>
</g>
<!-- cs -->
<g id="node14" class="node">
<title>cs</title>
<polygon fill="yellow" stroke="black" points="1556,-829.5 1520,-829.5 1520,-793.5 1556,-793.5 1556,-829.5"/>
<text text-anchor="middle" x="1538" y="-807.8" font-family="Times,serif" font-size="14.00">cs</text>
</g>
<!-- kd&#45;&gt;cs -->
<g id="edge11" class="edge">
<title>kd&#45;&gt;cs</title>
<path fill="none" stroke="black" d="M1586.52,-320.18C1614.71,-343.04 1667,-392.99 1667,-449 1667,-667 1667,-667 1667,-667 1667,-727.38 1603.06,-773.86 1565.21,-796.09"/>
<polygon fill="black" stroke="black" points="1563.17,-793.23 1556.21,-801.22 1566.63,-799.32 1563.17,-793.23"/>
</g>
<!-- jg -->
<g id="node15" class="node">
<title>jg</title>
<ellipse fill="none" stroke="black" cx="1569" cy="-234" rx="27" ry="18"/>
<text text-anchor="middle" x="1569" y="-230.3" font-family="Times,serif" font-size="14.00">jg</text>
</g>
<!-- kd&#45;&gt;jg -->
<g id="edge12" class="edge">
<title>kd&#45;&gt;jg</title>
<path fill="none" stroke="black" d="M1569,-287.7C1569,-279.98 1569,-270.71 1569,-262.11"/>
<polygon fill="black" stroke="black" points="1572.5,-262.1 1569,-252.1 1565.5,-262.1 1572.5,-262.1"/>
</g>
<!-- cs&#45;&gt;jg -->
<g id="edge39" class="edge">
<title>cs&#45;&gt;jg</title>
<path fill="none" stroke="black" d="M1519.79,-801.66C1483.36,-782.57 1405,-733.75 1405,-667 1405,-667 1405,-667 1405,-377 1405,-308.47 1487.86,-265.62 1535.78,-246.56"/>
<polygon fill="black" stroke="black" points="1537.07,-249.82 1545.15,-242.97 1534.56,-243.28 1537.07,-249.82"/>
</g>
<!-- jc -->
<g id="node33" class="node">
<title>jc</title>
<ellipse fill="none" stroke="black" cx="1536" cy="-522" rx="27" ry="18"/>
<text text-anchor="middle" x="1536" y="-518.3" font-family="Times,serif" font-size="14.00">jc</text>
</g>
<!-- cs&#45;&gt;jc -->
<g id="edge41" class="edge">
<title>cs&#45;&gt;jc</title>
<path fill="none" stroke="black" d="M1537.88,-793.38C1537.55,-745.34 1536.6,-608.99 1536.19,-550.36"/>
<polygon fill="black" stroke="black" points="1539.69,-550.01 1536.12,-540.03 1532.69,-550.06 1539.69,-550.01"/>
</g>
<!-- sb -->
<g id="node35" class="node">
<title>sb</title>
<ellipse fill="none" stroke="black" cx="1538" cy="-885" rx="27" ry="18"/>
<text text-anchor="middle" x="1538" y="-881.3" font-family="Times,serif" font-size="14.00">sb</text>
</g>
<!-- cs&#45;&gt;sb -->
<g id="edge40" class="edge">
<title>cs&#45;&gt;sb</title>
<path fill="none" stroke="black" d="M1543.9,-829.99C1544.74,-838.19 1544.96,-848.14 1544.56,-857.26"/>
<polygon fill="black" stroke="black" points="1541.05,-857.18 1543.8,-867.42 1548.03,-857.7 1541.05,-857.18"/>
</g>
<!-- lp -->
<g id="node36" class="node">
<title>lp</title>
<ellipse fill="none" stroke="black" cx="1760" cy="-738" rx="27" ry="18"/>
<text text-anchor="middle" x="1760" y="-734.3" font-family="Times,serif" font-size="14.00">lp</text>
</g>
<!-- cs&#45;&gt;lp -->
<g id="edge38" class="edge">
<title>cs&#45;&gt;lp</title>
<path fill="none" stroke="black" d="M1556.18,-805.68C1589.02,-796.83 1660.27,-776.96 1719,-756 1722.12,-754.89 1725.35,-753.67 1728.56,-752.41"/>
<polygon fill="black" stroke="black" points="1730.07,-755.58 1738.03,-748.59 1727.45,-749.09 1730.07,-755.58"/>
</g>
<!-- dr -->
<g id="node39" class="node">
<title>dr</title>
<polygon fill="yellow" stroke="black" points="1082,-684 1046,-684 1046,-648 1082,-648 1082,-684"/>
<text text-anchor="middle" x="1064" y="-662.3" font-family="Times,serif" font-size="14.00">dr</text>
</g>
<!-- cs&#45;&gt;dr -->
<g id="edge42" class="edge">
<title>cs&#45;&gt;dr</title>
<path fill="none" stroke="black" d="M1519.92,-810.73C1445.28,-811.33 1161.86,-809.96 1095,-756 1076.54,-741.11 1069.05,-714.55 1066.02,-694.3"/>
<polygon fill="black" stroke="black" points="1069.46,-693.61 1064.78,-684.11 1062.51,-694.46 1069.46,-693.61"/>
</g>
<!-- bj -->
<g id="node49" class="node">
<title>bj</title>
<ellipse fill="none" stroke="black" cx="1602" cy="-162" rx="27" ry="18"/>
<text text-anchor="middle" x="1602" y="-158.3" font-family="Times,serif" font-size="14.00">bj</text>
</g>
<!-- jg&#45;&gt;bj -->
<g id="edge68" class="edge">
<title>jg&#45;&gt;bj</title>
<path fill="none" stroke="black" d="M1576.82,-216.41C1580.72,-208.13 1585.54,-197.92 1589.9,-188.66"/>
<polygon fill="black" stroke="black" points="1593.14,-190.01 1594.24,-179.47 1586.81,-187.02 1593.14,-190.01"/>
</g>
<!-- nx -->
<g id="node16" class="node">
<title>nx</title>
<ellipse fill="none" stroke="black" cx="1131" cy="-811.5" rx="27" ry="18"/>
<text text-anchor="middle" x="1131" y="-807.8" font-family="Times,serif" font-size="14.00">nx</text>
</g>
<!-- qr -->
<g id="node17" class="node">
<title>qr</title>
<ellipse fill="none" stroke="black" cx="1131" cy="-738" rx="27" ry="18"/>
<text text-anchor="middle" x="1131" y="-734.3" font-family="Times,serif" font-size="14.00">qr</text>
</g>
<!-- nx&#45;&gt;qr -->
<g id="edge15" class="edge">
<title>nx&#45;&gt;qr</title>
<path fill="none" stroke="black" d="M1131,-793.19C1131,-785.11 1131,-775.3 1131,-766.26"/>
<polygon fill="black" stroke="black" points="1134.5,-766.15 1131,-756.15 1127.5,-766.15 1134.5,-766.15"/>
</g>
<!-- pz -->
<g id="node26" class="node">
<title>pz</title>
<ellipse fill="none" stroke="black" cx="1182" cy="-666" rx="27" ry="18"/>
<text text-anchor="middle" x="1182" y="-662.3" font-family="Times,serif" font-size="14.00">pz</text>
</g>
<!-- qr&#45;&gt;pz -->
<g id="edge91" class="edge">
<title>qr&#45;&gt;pz</title>
<path fill="none" stroke="black" d="M1142.32,-721.46C1148.92,-712.4 1157.38,-700.79 1164.8,-690.61"/>
<polygon fill="black" stroke="black" points="1167.65,-692.64 1170.71,-682.49 1162,-688.51 1167.65,-692.64"/>
</g>
<!-- dt -->
<g id="node18" class="node">
<title>dt</title>
<polygon fill="yellow" stroke="black" points="761,-684 725,-684 725,-648 761,-648 761,-684"/>
<text text-anchor="middle" x="743" y="-662.3" font-family="Times,serif" font-size="14.00">dt</text>
</g>
<!-- bx -->
<g id="node19" class="node">
<title>bx</title>
<ellipse fill="none" stroke="black" cx="528" cy="-594" rx="27" ry="18"/>
<text text-anchor="middle" x="528" y="-590.3" font-family="Times,serif" font-size="14.00">bx</text>
</g>
<!-- dt&#45;&gt;bx -->
<g id="edge16" class="edge">
<title>dt&#45;&gt;bx</title>
<path fill="none" stroke="black" d="M724.77,-660.08C692.89,-651.33 625.03,-632.1 569,-612 565.88,-610.88 562.65,-609.66 559.44,-608.4"/>
<polygon fill="black" stroke="black" points="560.56,-605.08 549.98,-604.57 557.94,-611.57 560.56,-605.08"/>
</g>
<!-- mg -->
<g id="node20" class="node">
<title>mg</title>
<ellipse fill="none" stroke="black" cx="766" cy="-885" rx="27" ry="18"/>
<text text-anchor="middle" x="766" y="-881.3" font-family="Times,serif" font-size="14.00">mg</text>
</g>
<!-- dt&#45;&gt;mg -->
<g id="edge17" class="edge">
<title>dt&#45;&gt;mg</title>
<path fill="none" stroke="black" d="M748.69,-684.25C756.24,-721.84 765.99,-811.39 767.77,-856.72"/>
<polygon fill="black" stroke="black" points="764.28,-857.07 768.04,-866.97 771.27,-856.88 764.28,-857.07"/>
</g>
<!-- qb -->
<g id="node21" class="node">
<title>qb</title>
<ellipse fill="none" stroke="black" cx="676" cy="-522" rx="27" ry="18"/>
<text text-anchor="middle" x="676" y="-518.3" font-family="Times,serif" font-size="14.00">qb</text>
</g>
<!-- dt&#45;&gt;qb -->
<g id="edge18" class="edge">
<title>dt&#45;&gt;qb</title>
<path fill="none" stroke="black" d="M734.46,-647.87C729.34,-637.51 722.72,-624.03 717,-612 706.89,-590.74 695.73,-566.46 687.61,-548.64"/>
<polygon fill="black" stroke="black" points="690.76,-547.11 683.44,-539.46 684.39,-550.01 690.76,-547.11"/>
</g>
<!-- cl -->
<g id="node22" class="node">
<title>cl</title>
<polygon fill="yellow" stroke="black" points="947,-540 911,-540 911,-504 947,-504 947,-540"/>
<text text-anchor="middle" x="929" y="-518.3" font-family="Times,serif" font-size="14.00">cl</text>
</g>
<!-- dt&#45;&gt;cl -->
<g id="edge19" class="edge">
<title>dt&#45;&gt;cl</title>
<path fill="none" stroke="black" d="M761.05,-663.75C792.8,-660.59 858.85,-649.63 897,-612 913.75,-595.48 921.77,-569.58 925.59,-549.97"/>
<polygon fill="black" stroke="black" points="929.04,-550.54 927.27,-540.1 922.14,-549.37 929.04,-550.54"/>
</g>
<!-- zb -->
<g id="node23" class="node">
<title>zb</title>
<ellipse fill="none" stroke="black" cx="733" cy="-306" rx="27" ry="18"/>
<text text-anchor="middle" x="733" y="-302.3" font-family="Times,serif" font-size="14.00">zb</text>
</g>
<!-- dt&#45;&gt;zb -->
<g id="edge20" class="edge">
<title>dt&#45;&gt;zb</title>
<path fill="none" stroke="black" d="M725,-655.14C691.06,-635.09 621,-586.05 621,-523 621,-523 621,-523 621,-449 621,-394.53 672.44,-348.67 705.6,-324.77"/>
<polygon fill="black" stroke="black" points="707.81,-327.49 714,-318.89 703.8,-321.75 707.81,-327.49"/>
</g>
<!-- bx&#45;&gt;qb -->
<g id="edge49" class="edge">
<title>bx&#45;&gt;qb</title>
<path fill="none" stroke="black" d="M549.52,-582.82C574.73,-570.9 616.68,-551.06 645.3,-537.52"/>
<polygon fill="black" stroke="black" points="646.91,-540.63 654.45,-533.19 643.92,-534.3 646.91,-540.63"/>
</g>
<!-- mg&#45;&gt;dt -->
<g id="edge46" class="edge">
<title>mg&#45;&gt;dt</title>
<path fill="none" stroke="black" d="M760.43,-867.33C752.85,-830.03 742.98,-739.53 741.22,-694.04"/>
<polygon fill="black" stroke="black" points="744.72,-693.93 740.96,-684.02 737.72,-694.11 744.72,-693.93"/>
</g>
<!-- fj -->
<g id="node41" class="node">
<title>fj</title>
<ellipse fill="none" stroke="black" cx="702" cy="-811.5" rx="27" ry="18"/>
<text text-anchor="middle" x="702" y="-807.8" font-family="Times,serif" font-size="14.00">fj</text>
</g>
<!-- mg&#45;&gt;fj -->
<g id="edge45" class="edge">
<title>mg&#45;&gt;fj</title>
<path fill="none" stroke="black" d="M752.74,-869.19C743.9,-859.31 732.12,-846.15 722.13,-834.99"/>
<polygon fill="black" stroke="black" points="724.52,-832.41 715.24,-827.3 719.31,-837.08 724.52,-832.41"/>
</g>
<!-- qm -->
<g id="node55" class="node">
<title>qm</title>
<ellipse fill="none" stroke="black" cx="714" cy="-450" rx="27" ry="18"/>
<text text-anchor="middle" x="714" y="-446.3" font-family="Times,serif" font-size="14.00">qm</text>
</g>
<!-- qb&#45;&gt;qm -->
<g id="edge99" class="edge">
<title>qb&#45;&gt;qm</title>
<path fill="none" stroke="black" d="M684.81,-504.76C689.42,-496.28 695.16,-485.71 700.32,-476.2"/>
<polygon fill="black" stroke="black" points="703.54,-477.61 705.23,-467.15 697.39,-474.27 703.54,-477.61"/>
</g>
<!-- cl&#45;&gt;vr -->
<g id="edge85" class="edge">
<title>cl&#45;&gt;vr</title>
<path fill="none" stroke="black" d="M930.36,-503.98C933.19,-473.97 941.19,-410.09 961,-360 964.69,-350.67 970.02,-341.16 975.33,-332.82"/>
<polygon fill="black" stroke="black" points="978.38,-334.56 981,-324.3 972.55,-330.69 978.38,-334.56"/>
</g>
<!-- gz -->
<g id="node28" class="node">
<title>gz</title>
<ellipse fill="none" stroke="black" cx="790" cy="-234" rx="27" ry="18"/>
<text text-anchor="middle" x="790" y="-230.3" font-family="Times,serif" font-size="14.00">gz</text>
</g>
<!-- zb&#45;&gt;gz -->
<g id="edge100" class="edge">
<title>zb&#45;&gt;gz</title>
<path fill="none" stroke="black" d="M745.37,-289.81C752.91,-280.55 762.7,-268.52 771.19,-258.09"/>
<polygon fill="black" stroke="black" points="774.06,-260.12 777.66,-250.16 768.63,-255.7 774.06,-260.12"/>
</g>
<!-- vx -->
<g id="node24" class="node">
<title>vx</title>
<ellipse fill="none" stroke="black" cx="1133" cy="-18" rx="27" ry="18"/>
<text text-anchor="middle" x="1133" y="-14.3" font-family="Times,serif" font-size="14.00">vx</text>
</g>
<!-- vx&#45;&gt;bd -->
<g id="edge21" class="edge">
<title>vx&#45;&gt;bd</title>
<path fill="none" stroke="black" d="M1127.47,-35.84C1119.31,-62.21 1105,-115.02 1105,-161 1105,-307 1105,-307 1105,-307 1105,-352.36 1135.52,-397.25 1157.88,-424.05"/>
<polygon fill="black" stroke="black" points="1155.34,-426.47 1164.51,-431.77 1160.64,-421.91 1155.34,-426.47"/>
</g>
<!-- bd&#45;&gt;cj -->
<g id="edge61" class="edge">
<title>bd&#45;&gt;cj</title>
<path fill="none" stroke="black" d="M1199.21,-439.27C1220.75,-427.76 1256.9,-408.44 1282.46,-394.78"/>
<polygon fill="black" stroke="black" points="1284.18,-397.83 1291.35,-390.03 1280.88,-391.66 1284.18,-397.83"/>
</g>
<!-- bd&#45;&gt;nx -->
<g id="edge57" class="edge">
<title>bd&#45;&gt;nx</title>
<path fill="none" stroke="black" d="M1162.97,-467.53C1130.24,-498.89 1062.14,-570.86 1037,-648 1021.49,-695.6 1039.35,-715.66 1069,-756 1078.93,-769.51 1092.74,-782.05 1104.8,-791.69"/>
<polygon fill="black" stroke="black" points="1102.75,-794.53 1112.8,-797.88 1107.03,-789 1102.75,-794.53"/>
</g>
<!-- bd&#45;&gt;qr -->
<g id="edge60" class="edge">
<title>bd&#45;&gt;qr</title>
<path fill="none" stroke="black" d="M1175.13,-468.16C1167.21,-492.04 1153.26,-536.78 1146,-576 1137.41,-622.42 1133.63,-677.33 1132.05,-709.54"/>
<polygon fill="black" stroke="black" points="1128.54,-709.79 1131.58,-719.94 1135.53,-710.11 1128.54,-709.79"/>
</g>
<!-- bd&#45;&gt;pz -->
<g id="edge58" class="edge">
<title>bd&#45;&gt;pz</title>
<path fill="none" stroke="black" d="M1171.56,-468.16C1156.48,-497.87 1130.19,-560.6 1146,-612 1149.29,-622.69 1155.54,-633.15 1161.93,-641.92"/>
<polygon fill="black" stroke="black" points="1159.35,-644.31 1168.25,-650.07 1164.88,-640.02 1159.35,-644.31"/>
</g>
<!-- dc -->
<g id="node38" class="node">
<title>dc</title>
<ellipse fill="none" stroke="black" cx="1188" cy="-885" rx="27" ry="18"/>
<text text-anchor="middle" x="1188" y="-881.3" font-family="Times,serif" font-size="14.00">dc</text>
</g>
<!-- bd&#45;&gt;dc -->
<g id="edge59" class="edge">
<title>bd&#45;&gt;dc</title>
<path fill="none" stroke="black" d="M1199.19,-466.54C1221.42,-491.58 1255,-543.11 1255,-593 1255,-739 1255,-739 1255,-739 1255,-785.24 1229.26,-834.22 1209.41,-861.77"/>
<polygon fill="black" stroke="black" points="1206.48,-859.85 1203.22,-869.93 1212.05,-864.08 1206.48,-859.85"/>
</g>
<!-- bd&#45;&gt;df -->
<g id="edge62" class="edge">
<title>bd&#45;&gt;df</title>
<path fill="none" stroke="black" d="M1185.58,-431.82C1188.33,-421.46 1191.89,-407.98 1195,-396 1207.23,-348.84 1221.17,-293.83 1229.24,-261.85"/>
<polygon fill="black" stroke="black" points="1232.69,-262.49 1231.74,-251.93 1225.9,-260.77 1232.69,-262.49"/>
</g>
<!-- tn -->
<g id="node47" class="node">
<title>tn</title>
<polygon fill="yellow" stroke="black" points="1077,-396 1041,-396 1041,-360 1077,-360 1077,-396"/>
<text text-anchor="middle" x="1059" y="-374.3" font-family="Times,serif" font-size="14.00">tn</text>
</g>
<!-- bd&#45;&gt;tn -->
<g id="edge63" class="edge">
<title>bd&#45;&gt;tn</title>
<path fill="none" stroke="black" d="M1163,-438.67C1142.64,-426.99 1109.27,-407.84 1085.83,-394.39"/>
<polygon fill="black" stroke="black" points="1087.49,-391.31 1077.08,-389.37 1084.01,-397.38 1087.49,-391.31"/>
</g>
<!-- rv -->
<g id="node27" class="node">
<title>rv</title>
<ellipse fill="none" stroke="black" cx="1182" cy="-594" rx="27" ry="18"/>
<text text-anchor="middle" x="1182" y="-590.3" font-family="Times,serif" font-size="14.00">rv</text>
</g>
<!-- pz&#45;&gt;rv -->
<g id="edge22" class="edge">
<title>pz&#45;&gt;rv</title>
<path fill="none" stroke="black" d="M1182,-647.7C1182,-639.98 1182,-630.71 1182,-622.11"/>
<polygon fill="black" stroke="black" points="1185.5,-622.1 1182,-612.1 1178.5,-622.1 1185.5,-622.1"/>
</g>
<!-- rv&#45;&gt;bd -->
<g id="edge106" class="edge">
<title>rv&#45;&gt;bd</title>
<path fill="none" stroke="black" d="M1181.88,-575.87C1181.71,-551.67 1181.4,-507.21 1181.19,-478.39"/>
<polygon fill="black" stroke="black" points="1184.69,-478.16 1181.12,-468.19 1177.69,-478.21 1184.69,-478.16"/>
</g>
<!-- mp -->
<g id="node59" class="node">
<title>mp</title>
<ellipse fill="none" stroke="black" cx="1310" cy="-522" rx="27" ry="18"/>
<text text-anchor="middle" x="1310" y="-518.3" font-family="Times,serif" font-size="14.00">mp</text>
</g>
<!-- rv&#45;&gt;mp -->
<g id="edge107" class="edge">
<title>rv&#45;&gt;mp</title>
<path fill="none" stroke="black" d="M1202.28,-581.91C1223.44,-570.34 1256.81,-552.09 1280.8,-538.97"/>
<polygon fill="black" stroke="black" points="1282.72,-541.91 1289.81,-534.04 1279.36,-535.77 1282.72,-541.91"/>
</g>
<!-- gz&#45;&gt;dt -->
<g id="edge24" class="edge">
<title>gz&#45;&gt;dt</title>
<path fill="none" stroke="black" d="M793.36,-251.97C798.31,-278.52 807,-331.56 807,-377 807,-523 807,-523 807,-523 807,-566.92 781.24,-612.27 762.4,-639.56"/>
<polygon fill="black" stroke="black" points="759.52,-637.58 756.57,-647.76 765.22,-641.63 759.52,-637.58"/>
</g>
<!-- dx -->
<g id="node29" class="node">
<title>dx</title>
<ellipse fill="none" stroke="black" cx="809" cy="-162" rx="27" ry="18"/>
<text text-anchor="middle" x="809" y="-158.3" font-family="Times,serif" font-size="14.00">dx</text>
</g>
<!-- gz&#45;&gt;dx -->
<g id="edge25" class="edge">
<title>gz&#45;&gt;dx</title>
<path fill="none" stroke="black" d="M794.6,-216.05C796.75,-208.14 799.35,-198.54 801.76,-189.69"/>
<polygon fill="black" stroke="black" points="805.2,-190.36 804.44,-179.79 798.45,-188.52 805.2,-190.36"/>
</g>
<!-- dx&#45;&gt;dt -->
<g id="edge51" class="edge">
<title>dx&#45;&gt;dt</title>
<path fill="none" stroke="black" d="M816.11,-179.7C826.6,-205.89 845,-258.46 845,-305 845,-523 845,-523 845,-523 845,-574.88 799.53,-620.79 769.3,-645.57"/>
<polygon fill="black" stroke="black" points="766.88,-643.02 761.24,-651.98 771.24,-648.5 766.88,-643.02"/>
</g>
<!-- bv -->
<g id="node43" class="node">
<title>bv</title>
<ellipse fill="none" stroke="black" cx="809" cy="-90" rx="27" ry="18"/>
<text text-anchor="middle" x="809" y="-86.3" font-family="Times,serif" font-size="14.00">bv</text>
</g>
<!-- dx&#45;&gt;bv -->
<g id="edge50" class="edge">
<title>dx&#45;&gt;bv</title>
<path fill="none" stroke="black" d="M809,-143.7C809,-135.98 809,-126.71 809,-118.11"/>
<polygon fill="black" stroke="black" points="812.5,-118.1 809,-108.1 805.5,-118.1 812.5,-118.1"/>
</g>
<!-- ng -->
<g id="node30" class="node">
<title>ng</title>
<ellipse fill="none" stroke="black" cx="198" cy="-522" rx="27" ry="18"/>
<text text-anchor="middle" x="198" y="-518.3" font-family="Times,serif" font-size="14.00">ng</text>
</g>
<!-- ng&#45;&gt;ds -->
<g id="edge27" class="edge">
<title>ng&#45;&gt;ds</title>
<path fill="none" stroke="black" d="M189.13,-539.06C175.76,-564.82 152,-617.32 152,-665 152,-812.5 152,-812.5 152,-812.5 152,-864.92 197.92,-911.31 228.44,-936.36"/>
<polygon fill="black" stroke="black" points="226.58,-939.35 236.59,-942.84 230.94,-933.88 226.58,-939.35"/>
</g>
<!-- ng&#45;&gt;ft -->
<g id="edge26" class="edge">
<title>ng&#45;&gt;ft</title>
<path fill="none" stroke="black" d="M198,-503.7C198,-495.98 198,-486.71 198,-478.11"/>
<polygon fill="black" stroke="black" points="201.5,-478.1 198,-468.1 194.5,-478.1 201.5,-478.1"/>
</g>
<!-- sh -->
<g id="node31" class="node">
<title>sh</title>
<ellipse fill="none" stroke="black" cx="1612" cy="-666" rx="27" ry="18"/>
<text text-anchor="middle" x="1612" y="-662.3" font-family="Times,serif" font-size="14.00">sh</text>
</g>
<!-- sh&#45;&gt;cs -->
<g id="edge29" class="edge">
<title>sh&#45;&gt;cs</title>
<path fill="none" stroke="black" d="M1604.99,-683.67C1597.23,-701.76 1584.08,-731.36 1571,-756 1566,-765.43 1560.08,-775.49 1554.64,-784.37"/>
<polygon fill="black" stroke="black" points="1551.51,-782.78 1549.21,-793.12 1557.46,-786.47 1551.51,-782.78"/>
</g>
<!-- kn -->
<g id="node32" class="node">
<title>kn</title>
<ellipse fill="none" stroke="black" cx="1574" cy="-594" rx="27" ry="18"/>
<text text-anchor="middle" x="1574" y="-590.3" font-family="Times,serif" font-size="14.00">kn</text>
</g>
<!-- sh&#45;&gt;kn -->
<g id="edge28" class="edge">
<title>sh&#45;&gt;kn</title>
<path fill="none" stroke="black" d="M1603.19,-648.76C1598.58,-640.28 1592.84,-629.71 1587.68,-620.2"/>
<polygon fill="black" stroke="black" points="1590.61,-618.27 1582.77,-611.15 1584.46,-621.61 1590.61,-618.27"/>
</g>
<!-- kn&#45;&gt;cs -->
<g id="edge31" class="edge">
<title>kn&#45;&gt;cs</title>
<path fill="none" stroke="black" d="M1571.15,-612.05C1564.93,-649.3 1550.08,-738.19 1542.55,-783.28"/>
<polygon fill="black" stroke="black" points="1539.08,-782.79 1540.89,-793.23 1545.99,-783.94 1539.08,-782.79"/>
</g>
<!-- kn&#45;&gt;jc -->
<g id="edge30" class="edge">
<title>kn&#45;&gt;jc</title>
<path fill="none" stroke="black" d="M1565.19,-576.76C1560.58,-568.28 1554.84,-557.71 1549.68,-548.2"/>
<polygon fill="black" stroke="black" points="1552.61,-546.27 1544.77,-539.15 1546.46,-549.61 1552.61,-546.27"/>
</g>
<!-- zf -->
<g id="node44" class="node">
<title>zf</title>
<ellipse fill="none" stroke="black" cx="1517" cy="-450" rx="27" ry="18"/>
<text text-anchor="middle" x="1517" y="-446.3" font-family="Times,serif" font-size="14.00">zf</text>
</g>
<!-- jc&#45;&gt;zf -->
<g id="edge52" class="edge">
<title>jc&#45;&gt;zf</title>
<path fill="none" stroke="black" d="M1531.4,-504.05C1529.25,-496.14 1526.65,-486.54 1524.24,-477.69"/>
<polygon fill="black" stroke="black" points="1527.55,-476.52 1521.56,-467.79 1520.8,-478.36 1527.55,-476.52"/>
</g>
<!-- ls&#45;&gt;ds -->
<g id="edge70" class="edge">
<title>ls&#45;&gt;ds</title>
<path fill="none" stroke="black" d="M237.98,-610.66C245.49,-620.92 255.03,-634.83 262,-648 294.2,-708.84 306.11,-724.39 319,-792 328.79,-843.32 296.97,-899.22 274.75,-930.71"/>
<polygon fill="black" stroke="black" points="271.83,-928.77 268.78,-938.92 277.49,-932.89 271.83,-928.77"/>
</g>
<!-- ls&#45;&gt;ng -->
<g id="edge71" class="edge">
<title>ls&#45;&gt;ng</title>
<path fill="none" stroke="black" d="M219.36,-576.41C216.09,-568.22 212.06,-558.14 208.38,-548.95"/>
<polygon fill="black" stroke="black" points="211.55,-547.45 204.59,-539.47 205.05,-550.05 211.55,-547.45"/>
</g>
<!-- sb&#45;&gt;cs -->
<g id="edge34" class="edge">
<title>sb&#45;&gt;cs</title>
<path fill="none" stroke="black" d="M1532.2,-867.42C1531.31,-859.35 1531.05,-849.44 1531.4,-840.27"/>
<polygon fill="black" stroke="black" points="1534.91,-840.21 1532.1,-829.99 1527.93,-839.73 1534.91,-840.21"/>
</g>
<!-- sb&#45;&gt;lp -->
<g id="edge33" class="edge">
<title>sb&#45;&gt;lp</title>
<path fill="none" stroke="black" d="M1556.55,-871.89C1595.72,-846.3 1687.06,-786.64 1732.83,-756.74"/>
<polygon fill="black" stroke="black" points="1734.89,-759.58 1741.35,-751.18 1731.06,-753.72 1734.89,-759.58"/>
</g>
<!-- lp&#45;&gt;sh -->
<g id="edge103" class="edge">
<title>lp&#45;&gt;sh</title>
<path fill="none" stroke="black" d="M1738.48,-726.82C1713.27,-714.9 1671.32,-695.06 1642.7,-681.52"/>
<polygon fill="black" stroke="black" points="1644.08,-678.3 1633.55,-677.19 1641.09,-684.63 1644.08,-678.3"/>
</g>
<!-- fg&#45;&gt;ds -->
<g id="edge66" class="edge">
<title>fg&#45;&gt;ds</title>
<path fill="none" stroke="black" d="M306.97,-312.97C358.74,-326.98 473,-367.19 473,-449 473,-812.5 473,-812.5 473,-812.5 473,-853.6 482.28,-873.17 454,-903 430.63,-927.66 332.28,-944.91 283.16,-952.17"/>
<polygon fill="black" stroke="black" points="282.59,-948.72 273.19,-953.6 283.59,-955.64 282.59,-948.72"/>
</g>
<!-- fg&#45;&gt;xz -->
<g id="edge67" class="edge">
<title>fg&#45;&gt;xz</title>
<path fill="none" stroke="black" d="M258.82,-296.42C225.44,-284.05 163.65,-261.17 125.65,-247.09"/>
<polygon fill="black" stroke="black" points="126.66,-243.74 116.07,-243.54 124.23,-250.3 126.66,-243.74"/>
</g>
<!-- dc&#45;&gt;nx -->
<g id="edge37" class="edge">
<title>dc&#45;&gt;nx</title>
<path fill="none" stroke="black" d="M1175.91,-868.84C1168.2,-859.17 1158.07,-846.45 1149.37,-835.55"/>
<polygon fill="black" stroke="black" points="1152.04,-833.28 1143.07,-827.64 1146.57,-837.64 1152.04,-833.28"/>
</g>
<!-- dc&#45;&gt;bd -->
<g id="edge36" class="edge">
<title>dc&#45;&gt;bd</title>
<path fill="none" stroke="black" d="M1193.97,-867.03C1207.68,-840.82 1237,-788.35 1237,-739 1237,-739 1237,-739 1237,-593 1237,-549.15 1211.06,-504.04 1194.22,-476.75"/>
<polygon fill="black" stroke="black" points="1197.17,-474.86 1188.91,-468.21 1191.22,-478.55 1197.17,-474.86"/>
</g>
<!-- dr&#45;&gt;vr -->
<g id="edge102" class="edge">
<title>dr&#45;&gt;vr</title>
<path fill="none" stroke="black" d="M1060.62,-647.73C1049.35,-590.08 1012.95,-403.89 999.26,-333.92"/>
<polygon fill="black" stroke="black" points="1002.7,-333.24 997.34,-324.09 995.83,-334.58 1002.7,-333.24"/>
</g>
<!-- tr -->
<g id="node40" class="node">
<title>tr</title>
<ellipse fill="none" stroke="black" cx="664" cy="-738" rx="27" ry="18"/>
<text text-anchor="middle" x="664" y="-734.3" font-family="Times,serif" font-size="14.00">tr</text>
</g>
<!-- tr&#45;&gt;dt -->
<g id="edge44" class="edge">
<title>tr&#45;&gt;dt</title>
<path fill="none" stroke="black" d="M679.61,-723.17C690.31,-713.69 704.75,-700.9 717.14,-689.91"/>
<polygon fill="black" stroke="black" points="719.77,-692.26 724.94,-683.01 715.13,-687.02 719.77,-692.26"/>
</g>
<!-- tr&#45;&gt;bx -->
<g id="edge43" class="edge">
<title>tr&#45;&gt;bx</title>
<path fill="none" stroke="black" d="M649.96,-722.34C626.03,-697.36 577.24,-646.42 549.17,-617.1"/>
<polygon fill="black" stroke="black" points="551.61,-614.6 542.17,-609.79 546.56,-619.44 551.61,-614.6"/>
</g>
<!-- fj&#45;&gt;dt -->
<g id="edge104" class="edge">
<title>fj&#45;&gt;dt</title>
<path fill="none" stroke="black" d="M706.78,-793.76C713.78,-769.26 726.89,-723.39 735.27,-694.07"/>
<polygon fill="black" stroke="black" points="738.74,-694.66 738.12,-684.08 732.01,-692.73 738.74,-694.66"/>
</g>
<!-- fj&#45;&gt;tr -->
<g id="edge105" class="edge">
<title>fj&#45;&gt;tr</title>
<path fill="none" stroke="black" d="M693.38,-794.28C688.66,-785.41 682.72,-774.23 677.42,-764.25"/>
<polygon fill="black" stroke="black" points="680.37,-762.35 672.59,-755.16 674.19,-765.63 680.37,-762.35"/>
</g>
<!-- lm&#45;&gt;ds -->
<g id="edge83" class="edge">
<title>lm&#45;&gt;ds</title>
<path fill="none" stroke="black" d="M21.67,-107.85C13.8,-134.25 0,-187.08 0,-233 0,-812.5 0,-812.5 0,-812.5 0,-858.24 12.96,-874.84 49,-903 102.01,-944.41 183.87,-953.72 226.69,-955.65"/>
<polygon fill="black" stroke="black" points="226.83,-959.16 236.94,-956 227.07,-952.16 226.83,-959.16"/>
</g>
<!-- bv&#45;&gt;dt -->
<g id="edge74" class="edge">
<title>bv&#45;&gt;dt</title>
<path fill="none" stroke="black" d="M782.63,-94.87C723.02,-105.27 583,-139.63 583,-233 583,-523 583,-523 583,-523 583,-568.81 601.45,-580.8 635,-612 658.05,-633.43 691.39,-648 714.91,-656.35"/>
<polygon fill="black" stroke="black" points="714.05,-659.76 724.65,-659.66 716.3,-653.13 714.05,-659.76"/>
</g>
<!-- bs -->
<g id="node51" class="node">
<title>bs</title>
<ellipse fill="none" stroke="black" cx="836" cy="-18" rx="27" ry="18"/>
<text text-anchor="middle" x="836" y="-14.3" font-family="Times,serif" font-size="14.00">bs</text>
</g>
<!-- bv&#45;&gt;bs -->
<g id="edge73" class="edge">
<title>bv&#45;&gt;bs</title>
<path fill="none" stroke="black" d="M815.4,-72.41C818.51,-64.34 822.33,-54.43 825.83,-45.35"/>
<polygon fill="black" stroke="black" points="829.13,-46.55 829.46,-35.96 822.6,-44.03 829.13,-46.55"/>
</g>
<!-- zf&#45;&gt;cs -->
<g id="edge79" class="edge">
<title>zf&#45;&gt;cs</title>
<path fill="none" stroke="black" d="M1509.89,-467.7C1499.4,-493.89 1481,-546.46 1481,-593 1481,-667 1481,-667 1481,-667 1481,-710.59 1504,-756.71 1520.78,-784.55"/>
<polygon fill="black" stroke="black" points="1517.94,-786.61 1526.19,-793.26 1523.89,-782.92 1517.94,-786.61"/>
</g>
<!-- lh -->
<g id="node53" class="node">
<title>lh</title>
<ellipse fill="none" stroke="black" cx="1517" cy="-378" rx="27" ry="18"/>
<text text-anchor="middle" x="1517" y="-374.3" font-family="Times,serif" font-size="14.00">lh</text>
</g>
<!-- zf&#45;&gt;lh -->
<g id="edge78" class="edge">
<title>zf&#45;&gt;lh</title>
<path fill="none" stroke="black" d="M1517,-431.7C1517,-423.98 1517,-414.71 1517,-406.11"/>
<polygon fill="black" stroke="black" points="1520.5,-406.1 1517,-396.1 1513.5,-406.1 1520.5,-406.1"/>
</g>
<!-- broadcaster -->
<g id="node45" class="node">
<title>broadcaster</title>
<polygon fill="none" stroke="black" points="954,-975 860.49,-957 954,-939 1047.51,-957 954,-975"/>
<text text-anchor="middle" x="954" y="-953.3" font-family="Times,serif" font-size="14.00">broadcaster</text>
</g>
<!-- broadcaster&#45;&gt;jk -->
<g id="edge55" class="edge">
<title>broadcaster&#45;&gt;jk</title>
<path fill="none" stroke="black" d="M901.14,-949.1C792.55,-934.91 546.8,-902.82 454.21,-890.73"/>
<polygon fill="black" stroke="black" points="454.57,-887.25 444.2,-889.42 453.66,-894.19 454.57,-887.25"/>
</g>
<!-- broadcaster&#45;&gt;mg -->
<g id="edge56" class="edge">
<title>broadcaster&#45;&gt;mg</title>
<path fill="none" stroke="black" d="M923.79,-944.75C889.6,-932.02 834.07,-911.34 798.82,-898.22"/>
<polygon fill="black" stroke="black" points="799.61,-894.78 789.02,-894.57 797.17,-901.34 799.61,-894.78"/>
</g>
<!-- broadcaster&#45;&gt;sb -->
<g id="edge53" class="edge">
<title>broadcaster&#45;&gt;sb</title>
<path fill="none" stroke="black" d="M1008.68,-949.45C1126.59,-935.31 1402.15,-902.28 1501.48,-890.38"/>
<polygon fill="black" stroke="black" points="1502.11,-893.83 1511.62,-889.16 1501.28,-886.88 1502.11,-893.83"/>
</g>
<!-- broadcaster&#45;&gt;dc -->
<g id="edge54" class="edge">
<title>broadcaster&#45;&gt;dc</title>
<path fill="none" stroke="black" d="M988.78,-945.6C1033.31,-932.28 1109.97,-909.34 1154.08,-896.15"/>
<polygon fill="black" stroke="black" points="1155.19,-899.47 1163.76,-893.25 1153.18,-892.76 1155.19,-899.47"/>
</g>
<!-- rs -->
<g id="node54" class="node">
<title>rs</title>
<ellipse fill="none" stroke="black" cx="1198" cy="-162" rx="27" ry="18"/>
<text text-anchor="middle" x="1198" y="-158.3" font-family="Times,serif" font-size="14.00">rs</text>
</g>
<!-- df&#45;&gt;rs -->
<g id="edge84" class="edge">
<title>df&#45;&gt;rs</title>
<path fill="none" stroke="black" d="M1227.19,-216.76C1222.58,-208.28 1216.84,-197.71 1211.68,-188.2"/>
<polygon fill="black" stroke="black" points="1214.61,-186.27 1206.77,-179.15 1208.46,-189.61 1214.61,-186.27"/>
</g>
<!-- tn&#45;&gt;vr -->
<g id="edge94" class="edge">
<title>tn&#45;&gt;vr</title>
<path fill="none" stroke="black" d="M1042.93,-359.7C1035.06,-351.22 1025.44,-340.86 1016.83,-331.58"/>
<polygon fill="black" stroke="black" points="1019.25,-329.05 1009.88,-324.1 1014.12,-333.81 1019.25,-329.05"/>
</g>
<!-- ll -->
<g id="node48" class="node">
<title>ll</title>
<ellipse fill="none" stroke="black" cx="733" cy="-378" rx="27" ry="18"/>
<text text-anchor="middle" x="733" y="-374.3" font-family="Times,serif" font-size="14.00">ll</text>
</g>
<!-- ll&#45;&gt;dt -->
<g id="edge65" class="edge">
<title>ll&#45;&gt;dt</title>
<path fill="none" stroke="black" d="M739.89,-395.86C743.7,-406.12 748.06,-419.59 750,-432 761.53,-505.72 752.82,-594.11 747.05,-637.8"/>
<polygon fill="black" stroke="black" points="743.55,-637.53 745.65,-647.91 750.49,-638.48 743.55,-637.53"/>
</g>
<!-- ll&#45;&gt;zb -->
<g id="edge64" class="edge">
<title>ll&#45;&gt;zb</title>
<path fill="none" stroke="black" d="M733,-359.7C733,-351.98 733,-342.71 733,-334.11"/>
<polygon fill="black" stroke="black" points="736.5,-334.1 733,-324.1 729.5,-334.1 736.5,-334.1"/>
</g>
<!-- bj&#45;&gt;cs -->
<g id="edge95" class="edge">
<title>bj&#45;&gt;cs</title>
<path fill="none" stroke="black" d="M1619.94,-175.62C1649.45,-198 1705,-247.74 1705,-305 1705,-667 1705,-667 1705,-667 1705,-739.47 1613.41,-783.31 1565.89,-801.17"/>
<polygon fill="black" stroke="black" points="1564.4,-797.99 1556.19,-804.68 1566.78,-804.57 1564.4,-797.99"/>
</g>
<!-- fp -->
<g id="node57" class="node">
<title>fp</title>
<ellipse fill="none" stroke="black" cx="1602" cy="-90" rx="27" ry="18"/>
<text text-anchor="middle" x="1602" y="-86.3" font-family="Times,serif" font-size="14.00">fp</text>
</g>
<!-- bj&#45;&gt;fp -->
<g id="edge96" class="edge">
<title>bj&#45;&gt;fp</title>
<path fill="none" stroke="black" d="M1602,-143.7C1602,-135.98 1602,-126.71 1602,-118.11"/>
<polygon fill="black" stroke="black" points="1605.5,-118.1 1602,-108.1 1598.5,-118.1 1605.5,-118.1"/>
</g>
<!-- rx -->
<g id="node56" class="node">
<title>rx</title>
<ellipse fill="none" stroke="black" cx="994" cy="-234" rx="27" ry="18"/>
<text text-anchor="middle" x="994" y="-230.3" font-family="Times,serif" font-size="14.00">rx</text>
</g>
<!-- vr&#45;&gt;rx -->
<g id="edge88" class="edge">
<title>vr&#45;&gt;rx</title>
<path fill="none" stroke="black" d="M994,-287.7C994,-279.98 994,-270.71 994,-262.11"/>
<polygon fill="black" stroke="black" points="997.5,-262.1 994,-252.1 990.5,-262.1 997.5,-262.1"/>
</g>
<!-- bs&#45;&gt;dt -->
<g id="edge82" class="edge">
<title>bs&#45;&gt;dt</title>
<path fill="none" stroke="black" d="M845.06,-35.04C858.72,-60.77 883,-113.22 883,-161 883,-523 883,-523 883,-523 883,-586.62 810.86,-632.07 770.15,-652.66"/>
<polygon fill="black" stroke="black" points="768.46,-649.59 761.02,-657.13 771.54,-655.88 768.46,-649.59"/>
</g>
<!-- gq -->
<g id="node52" class="node">
<title>gq</title>
<ellipse fill="none" stroke="black" cx="1160" cy="-90" rx="27" ry="18"/>
<text text-anchor="middle" x="1160" y="-86.3" font-family="Times,serif" font-size="14.00">gq</text>
</g>
<!-- gq&#45;&gt;vx -->
<g id="edge76" class="edge">
<title>gq&#45;&gt;vx</title>
<path fill="none" stroke="black" d="M1153.6,-72.41C1150.49,-64.34 1146.67,-54.43 1143.17,-45.35"/>
<polygon fill="black" stroke="black" points="1146.4,-44.03 1139.54,-35.96 1139.87,-46.55 1146.4,-44.03"/>
</g>
<!-- gq&#45;&gt;bd -->
<g id="edge75" class="edge">
<title>gq&#45;&gt;bd</title>
<path fill="none" stroke="black" d="M1156.64,-107.97C1151.69,-134.52 1143,-187.56 1143,-233 1143,-307 1143,-307 1143,-307 1143,-348.37 1158.23,-394.28 1169.41,-422.39"/>
<polygon fill="black" stroke="black" points="1166.28,-423.98 1173.31,-431.91 1172.76,-421.33 1166.28,-423.98"/>
</g>
<!-- lh&#45;&gt;kd -->
<g id="edge109" class="edge">
<title>lh&#45;&gt;kd</title>
<path fill="none" stroke="black" d="M1528.54,-361.46C1535.27,-352.4 1543.9,-340.79 1551.46,-330.61"/>
<polygon fill="black" stroke="black" points="1554.34,-332.61 1557.49,-322.49 1548.72,-328.43 1554.34,-332.61"/>
</g>
<!-- lh&#45;&gt;cs -->
<g id="edge108" class="edge">
<title>lh&#45;&gt;cs</title>
<path fill="none" stroke="black" d="M1503.08,-393.84C1481.65,-418.32 1443,-469.57 1443,-521 1443,-667 1443,-667 1443,-667 1443,-717.25 1484,-763.41 1512.13,-789.17"/>
<polygon fill="black" stroke="black" points="1509.88,-791.85 1519.68,-795.88 1514.53,-786.62 1509.88,-791.85"/>
</g>
<!-- rs&#45;&gt;bd -->
<g id="edge98" class="edge">
<title>rs&#45;&gt;bd</title>
<path fill="none" stroke="black" d="M1196.97,-180.31C1194.12,-228.31 1186.09,-363.44 1182.62,-421.7"/>
<polygon fill="black" stroke="black" points="1179.11,-421.78 1182.01,-431.97 1186.1,-422.19 1179.11,-421.78"/>
</g>
<!-- rs&#45;&gt;gq -->
<g id="edge97" class="edge">
<title>rs&#45;&gt;gq</title>
<path fill="none" stroke="black" d="M1189.19,-144.76C1184.58,-136.28 1178.84,-125.71 1173.68,-116.2"/>
<polygon fill="black" stroke="black" points="1176.61,-114.27 1168.77,-107.15 1170.46,-117.61 1176.61,-114.27"/>
</g>
<!-- qm&#45;&gt;dt -->
<g id="edge86" class="edge">
<title>qm&#45;&gt;dt</title>
<path fill="none" stroke="black" d="M716.29,-467.94C721.3,-504.85 733.22,-592.83 739.3,-637.69"/>
<polygon fill="black" stroke="black" points="735.86,-638.41 740.68,-647.85 742.8,-637.47 735.86,-638.41"/>
</g>
<!-- qm&#45;&gt;ll -->
<g id="edge87" class="edge">
<title>qm&#45;&gt;ll</title>
<path fill="none" stroke="black" d="M718.6,-432.05C720.75,-424.14 723.35,-414.54 725.76,-405.69"/>
<polygon fill="black" stroke="black" points="729.2,-406.36 728.44,-395.79 722.45,-404.52 729.2,-406.36"/>
</g>
<!-- fp&#45;&gt;cs -->
<g id="edge90" class="edge">
<title>fp&#45;&gt;cs</title>
<path fill="none" stroke="black" d="M1627.69,-95.56C1684.34,-107.26 1815,-143.89 1815,-233 1815,-667 1815,-667 1815,-667 1815,-707.45 1824.63,-727.43 1796,-756 1763.89,-788.04 1626.9,-803.13 1566.64,-808.32"/>
<polygon fill="black" stroke="black" points="1566,-804.86 1556.32,-809.17 1566.58,-811.83 1566,-804.86"/>
</g>
<!-- bk -->
<g id="node58" class="node">
<title>bk</title>
<ellipse fill="none" stroke="black" cx="1484" cy="-18" rx="27" ry="18"/>
<text text-anchor="middle" x="1484" y="-14.3" font-family="Times,serif" font-size="14.00">bk</text>
</g>
<!-- fp&#45;&gt;bk -->
<g id="edge89" class="edge">
<title>fp&#45;&gt;bk</title>
<path fill="none" stroke="black" d="M1582.51,-77.44C1563.38,-66.09 1534,-48.66 1512.29,-35.78"/>
<polygon fill="black" stroke="black" points="1513.9,-32.67 1503.51,-30.58 1510.33,-38.69 1513.9,-32.67"/>
</g>
<!-- bk&#45;&gt;cs -->
<g id="edge101" class="edge">
<title>bk&#45;&gt;cs</title>
<path fill="none" stroke="black" d="M1464.42,-30.51C1431.11,-51.74 1367,-100.47 1367,-161 1367,-667 1367,-667 1367,-667 1367,-713.27 1386.54,-725.12 1421,-756 1446.96,-779.26 1484.58,-794.38 1510.09,-802.66"/>
<polygon fill="black" stroke="black" points="1509.3,-806.08 1519.89,-805.7 1511.37,-799.39 1509.3,-806.08"/>
</g>
<!-- mp&#45;&gt;cj -->
<g id="edge92" class="edge">
<title>mp&#45;&gt;cj</title>
<path fill="none" stroke="black" d="M1310.24,-503.87C1310.58,-479.67 1311.21,-435.21 1311.61,-406.39"/>
<polygon fill="black" stroke="black" points="1315.12,-406.24 1311.76,-396.19 1308.12,-406.14 1315.12,-406.24"/>
</g>
<!-- mp&#45;&gt;bd -->
<g id="edge93" class="edge">
<title>mp&#45;&gt;bd</title>
<path fill="none" stroke="black" d="M1289.56,-509.91C1267.61,-498 1232.61,-479.01 1208.32,-465.82"/>
<polygon fill="black" stroke="black" points="1209.72,-462.6 1199.26,-460.91 1206.38,-468.75 1209.72,-462.6"/>
</g>
</g>
</svg>
